<?xml version="1.0" encoding="UTF-8" standalone="no"?>
<svg
        xmlns:dc="http://purl.org/dc/elements/1.1/"
        xmlns:cc="http://creativecommons.org/ns#"
        xmlns:rdf="http://www.w3.org/1999/02/22-rdf-syntax-ns#"
        xmlns:svg="http://www.w3.org/2000/svg"
        xmlns="http://www.w3.org/2000/svg"
        viewBox="0 0 462.06934 155.172"
        xml:space="preserve"
        style="fill:#FF5a1F"
        id="svg2"
        version="1.1"><metadata
     id="metadata8"><rdf:RDF><cc:Work
         rdf:about=""><dc:format>image/svg+xml</dc:format><dc:type
        rdf:resource="http://purl.org/dc/dcmitype/StillImage" /></cc:Work></rdf:RDF></metadata><defs
        id="defs6"><clipPath
       id="clipPath18"
       clipPathUnits="userSpaceOnUse"><path
         id="path16"
         d="M 0,116.379 H 346.552 V 0 H 0 Z" /></clipPath></defs><g
        transform="matrix(1.3333333,0,0,-1.3333333,0,155.172)"
        id="g10"><g
       id="g12"><g
         clip-path="url(#clipPath18)"
         id="g14"><g
           transform="translate(87.6045,69.3682)"
           id="g20"><path
             id="path22"
             style="fill-opacity:1;fill-rule:nonzero;stroke:none"
             d="m 0,0 c -0.83,-0.83 -2.513,-1.477 -3.514,-0.854 -1.451,0.927 -8.82,5.416 -17.153,5.807 -13.627,0.622 -19.118,-11.48 -5.49,-16.763 9.028,-3.501 16.263,-11.004 18.666,-19.788 v -0.013 c 0.561,-2.025 0.854,-4.123 0.854,-6.259 0,-0.182 0,-0.365 -0.012,-0.548 -0.317,-16.641 -15.238,-27.915 -35.832,-26.548 -22.204,1.465 -40.297,18.045 -40.297,40.309 0,1.83 0.122,3.624 0.366,5.393 0.159,0.708 0.342,1.415 0.549,2.135 l 0.049,-0.012 c -1.696,-10.541 2.318,-24.742 26.669,-33.673 -19.739,9.321 -19.41,26.097 -18.763,31.379 l 14.75,-4.27 c 0.146,-0.048 0.304,-0.048 0.451,-0.073 -1.196,-12.432 5.417,-21.826 17.666,-23.596 23.046,-3.318 27.523,16.544 13.09,25.036 -7.417,4.355 -20.178,5.221 -19.739,17.787 0.951,2.038 1.769,4.673 2.294,8.199 0.036,0.292 0,0.573 -0.037,0.853 2.647,4.844 7.942,8.016 14.237,9.541 8.894,2.135 19.74,0.964 27.792,-3.44 1.037,-0.574 1.94,-1.208 2.696,-1.891 C 0.512,7.613 1.33,6.38 1.647,5.124 2.086,3.404 1.61,1.623 0,0" /></g><g
        transform="translate(336.3282,59.2056)"
        id="g24"><path
             id="path26"
             style="fill-opacity:1;fill-rule:nonzero;stroke:none"
             d="m 0,0 c -0.183,-2.062 -0.878,-3.904 -2.11,-5.539 -1.22,-1.635 -2.806,-2.928 -4.734,-3.892 1.282,-1.916 2.526,-3.721 3.709,-5.405 1.183,-1.695 2.049,-3.05 2.599,-4.087 -0.415,-1.135 -1.086,-1.988 -2.014,-2.574 -0.915,-0.598 -1.89,-0.891 -2.928,-0.891 -1.341,0 -2.354,0.293 -3.013,0.891 -0.658,0.586 -1.269,1.391 -1.818,2.416 l -4.417,7.942 h -3.671 l -0.94,-10.712 c -0.402,-0.109 -0.964,-0.207 -1.684,-0.293 -0.719,-0.085 -1.463,-0.133 -2.245,-0.133 -1.671,0 -2.818,0.28 -3.416,0.853 -0.609,0.573 -0.853,1.599 -0.719,3.087 l 2.256,25.864 c 0.062,0.708 0.306,1.257 0.708,1.647 0.403,0.39 0.976,0.696 1.708,0.903 1.171,0.427 2.562,0.732 4.185,0.903 1.61,0.183 3.294,0.268 5.026,0.268 4.831,0 8.37,-1 10.615,-3.013 C -0.658,6.234 0.306,3.489 0,0 m -1.537,-30.854 c -0.073,-0.683 -0.329,-1.293 -0.756,-1.842 -0.428,-0.537 -0.964,-0.964 -1.61,-1.282 0.402,-0.634 0.793,-1.232 1.158,-1.793 0.379,-0.561 0.646,-1 0.817,-1.342 -0.158,-0.378 -0.389,-0.671 -0.695,-0.854 -0.317,-0.195 -0.634,-0.293 -0.976,-0.293 -0.451,0 -0.781,0.098 -0.988,0.293 -0.22,0.183 -0.402,0.451 -0.573,0.793 l -1.366,2.635 h -1.221 l -0.439,-3.55 c -0.134,-0.037 -0.317,-0.061 -0.561,-0.098 -0.232,-0.024 -0.476,-0.037 -0.744,-0.037 -0.549,0 -0.928,0.086 -1.111,0.282 -0.195,0.182 -0.268,0.524 -0.207,1.024 l 1.049,8.54 c 0.025,0.244 0.11,0.427 0.256,0.549 0.135,0.135 0.33,0.232 0.573,0.306 0.391,0.133 0.855,0.231 1.392,0.293 0.536,0.06 1.098,0.097 1.671,0.097 1.598,0 2.758,-0.342 3.477,-1.001 0.707,-0.671 1,-1.574 0.854,-2.72 m -11.797,0.659 c -0.062,-0.525 -0.257,-0.977 -0.599,-1.367 -0.329,-0.378 -0.78,-0.671 -1.353,-0.89 0.658,-0.22 1.134,-0.55 1.415,-0.977 0.293,-0.439 0.391,-0.964 0.317,-1.573 -0.134,-1.135 -0.659,-1.989 -1.574,-2.538 -0.902,-0.549 -2.147,-0.829 -3.733,-0.829 -0.22,0 -0.451,0.012 -0.72,0.012 -0.256,0.012 -0.524,0.036 -0.805,0.06 -0.268,0.037 -0.537,0.073 -0.805,0.135 -0.269,0.049 -0.513,0.122 -0.733,0.195 -0.573,0.232 -0.829,0.622 -0.768,1.196 l 1.037,8.393 c 0.024,0.244 0.11,0.427 0.244,0.549 0.146,0.135 0.342,0.232 0.586,0.306 0.402,0.122 0.89,0.219 1.476,0.293 0.585,0.06 1.183,0.097 1.793,0.097 1.464,0 2.575,-0.257 3.307,-0.757 0.744,-0.5 1.049,-1.268 0.915,-2.305 m -12.579,-7.736 c -0.316,-0.304 -0.72,-0.464 -1.207,-0.464 -0.488,0 -0.855,0.16 -1.099,0.464 -0.231,0.306 -0.329,0.684 -0.268,1.135 0.049,0.44 0.232,0.817 0.549,1.122 0.317,0.306 0.72,0.464 1.208,0.464 0.488,0 0.854,-0.158 1.085,-0.464 0.257,-0.305 0.342,-0.682 0.293,-1.122 -0.06,-0.451 -0.244,-0.829 -0.561,-1.135 m -4.831,6.954 c -0.012,-0.633 -0.036,-1.281 -0.061,-1.976 -0.024,-0.683 -0.049,-1.342 -0.086,-1.988 -0.036,-0.635 -0.06,-1.22 -0.085,-1.757 -0.037,-0.525 -0.061,-0.94 -0.086,-1.233 -0.195,-0.109 -0.39,-0.182 -0.597,-0.231 -0.207,-0.062 -0.464,-0.086 -0.769,-0.086 -0.378,0 -0.708,0.073 -0.964,0.208 -0.255,0.146 -0.378,0.427 -0.353,0.829 0.085,1.367 0.182,2.623 0.293,3.746 0.109,1.135 0.195,2.073 0.244,2.794 h -0.086 c -0.195,-0.488 -0.476,-1.11 -0.829,-1.867 -0.366,-0.744 -0.806,-1.72 -1.343,-2.903 -0.158,-0.122 -0.353,-0.208 -0.573,-0.282 -0.244,-0.073 -0.5,-0.109 -0.78,-0.109 -0.367,0 -0.684,0.049 -0.928,0.146 -0.232,0.085 -0.378,0.256 -0.44,0.489 -0.243,1.097 -0.451,2 -0.622,2.72 -0.182,0.732 -0.304,1.354 -0.402,1.878 h -0.06 c -0.135,-0.731 -0.245,-1.39 -0.342,-2 -0.098,-0.598 -0.184,-1.196 -0.282,-1.769 -0.084,-0.573 -0.17,-1.159 -0.267,-1.744 -0.098,-0.586 -0.208,-1.233 -0.33,-1.941 -0.134,-0.049 -0.318,-0.085 -0.536,-0.134 -0.22,-0.037 -0.452,-0.061 -0.684,-0.061 -0.464,0 -0.806,0.086 -1.049,0.244 -0.232,0.159 -0.33,0.428 -0.281,0.817 0.024,0.22 0.073,0.525 0.135,0.928 0.06,0.391 0.146,0.842 0.231,1.354 0.098,0.512 0.196,1.061 0.318,1.647 0.109,0.586 0.219,1.184 0.341,1.793 0.11,0.599 0.232,1.196 0.329,1.794 0.11,0.598 0.22,1.147 0.318,1.647 0.109,0.134 0.317,0.281 0.622,0.439 0.305,0.159 0.72,0.232 1.232,0.232 0.561,0 0.976,-0.085 1.269,-0.268 0.305,-0.171 0.513,-0.464 0.622,-0.855 0.098,-0.317 0.184,-0.682 0.28,-1.073 0.086,-0.39 0.184,-0.793 0.269,-1.208 0.086,-0.415 0.183,-0.817 0.268,-1.22 0.086,-0.402 0.16,-0.781 0.233,-1.123 h 0.096 c 0.453,1.037 0.904,2.038 1.355,3.002 0.451,0.976 0.83,1.793 1.159,2.452 0.183,0.074 0.391,0.147 0.659,0.208 0.256,0.061 0.536,0.085 0.842,0.085 0.536,0 0.951,-0.073 1.244,-0.232 0.293,-0.146 0.464,-0.366 0.489,-0.671 0.011,-0.231 0.024,-0.586 0.024,-1.073 0,-0.476 -0.013,-1.037 -0.037,-1.648 m -18.373,8.163 c -2.379,0 -4.551,0.377 -6.515,1.122 -1.952,0.744 -3.611,1.842 -4.966,3.282 -1.341,1.439 -2.342,3.221 -2.989,5.355 -0.646,2.136 -0.853,4.588 -0.609,7.358 0.243,2.768 0.878,5.209 1.915,7.332 1.037,2.11 2.367,3.891 3.989,5.331 1.623,1.44 3.465,2.525 5.539,3.27 2.074,0.744 4.282,1.122 6.625,1.122 2.342,0 4.501,-0.378 6.466,-1.122 1.952,-0.745 3.623,-1.83 4.977,-3.27 1.379,-1.44 2.391,-3.221 3.063,-5.331 0.658,-2.123 0.878,-4.564 0.634,-7.332 -0.244,-2.77 -0.878,-5.222 -1.891,-7.358 -1.025,-2.134 -2.343,-3.916 -3.965,-5.355 -1.623,-1.44 -3.477,-2.538 -5.563,-3.282 -2.086,-0.745 -4.331,-1.122 -6.71,-1.122 m 3.94,-9.931 c -0.122,-0.915 -0.353,-1.733 -0.719,-2.428 -0.367,-0.708 -0.818,-1.306 -1.367,-1.781 -0.561,-0.477 -1.183,-0.83 -1.879,-1.086 -0.708,-0.244 -1.452,-0.366 -2.232,-0.366 -0.793,0 -1.501,0.122 -2.147,0.366 -0.635,0.256 -1.172,0.609 -1.599,1.086 -0.427,0.475 -0.744,1.073 -0.927,1.781 -0.195,0.695 -0.232,1.513 -0.122,2.428 0.122,0.915 0.354,1.72 0.72,2.428 0.378,0.695 0.829,1.281 1.39,1.756 0.549,0.476 1.171,0.842 1.868,1.086 0.695,0.245 1.426,0.366 2.208,0.366 0.768,0 1.475,-0.121 2.123,-0.366 0.633,-0.244 1.171,-0.61 1.61,-1.086 0.427,-0.475 0.744,-1.061 0.939,-1.756 0.195,-0.708 0.244,-1.513 0.134,-2.428 m -13.005,3.123 c -0.159,-0.195 -0.341,-0.366 -0.549,-0.476 -0.281,0.196 -0.585,0.378 -0.927,0.525 -0.342,0.158 -0.757,0.231 -1.257,0.231 -0.939,0 -1.708,-0.304 -2.306,-0.89 -0.61,-0.598 -0.975,-1.44 -1.11,-2.526 -0.134,-1.135 0.037,-1.988 0.524,-2.55 0.489,-0.573 1.221,-0.853 2.197,-0.853 0.512,0 0.951,0.06 1.317,0.195 0.379,0.134 0.732,0.305 1.062,0.487 0.159,-0.146 0.28,-0.317 0.366,-0.536 0.085,-0.219 0.109,-0.464 0.073,-0.732 -0.024,-0.232 -0.11,-0.451 -0.269,-0.659 -0.146,-0.207 -0.377,-0.378 -0.695,-0.525 -0.256,-0.109 -0.586,-0.219 -1,-0.329 -0.415,-0.097 -0.915,-0.146 -1.501,-0.146 -0.781,0 -1.501,0.109 -2.159,0.342 -0.659,0.219 -1.208,0.561 -1.659,1.012 -0.44,0.464 -0.769,1.049 -0.964,1.757 -0.208,0.707 -0.244,1.562 -0.122,2.537 0.109,0.915 0.353,1.721 0.72,2.428 0.378,0.708 0.841,1.294 1.39,1.769 0.562,0.476 1.171,0.842 1.866,1.086 0.684,0.245 1.404,0.366 2.161,0.366 1.073,0 1.878,-0.17 2.427,-0.512 0.536,-0.33 0.781,-0.769 0.72,-1.281 -0.037,-0.269 -0.135,-0.513 -0.305,-0.72 m -10.98,16.518 c -1.037,-2.134 -2.392,-3.916 -4.063,-5.331 -1.671,-1.427 -3.635,-2.489 -5.88,-3.196 -2.246,-0.72 -4.698,-1.074 -7.37,-1.074 -0.597,0 -1.28,0.024 -2.048,0.061 -0.757,0.025 -1.538,0.085 -2.331,0.183 -0.793,0.086 -1.586,0.208 -2.391,0.366 -0.806,0.171 -1.526,0.366 -2.184,0.622 -1.794,0.671 -2.611,1.879 -2.452,3.624 l 2.22,25.376 c 0.061,0.708 0.293,1.257 0.708,1.647 0.402,0.39 0.975,0.708 1.708,0.964 1.488,0.451 3.062,0.757 4.709,0.903 1.647,0.134 3.147,0.207 4.502,0.207 2.732,0 5.197,-0.329 7.369,-1.012 2.184,-0.672 4.014,-1.708 5.49,-3.111 1.476,-1.403 2.562,-3.172 3.27,-5.283 0.695,-2.111 0.926,-4.612 0.671,-7.49 -0.245,-2.843 -0.891,-5.332 -1.928,-7.456 m -0.83,-24.827 c -0.317,-0.304 -0.72,-0.464 -1.196,-0.464 -0.5,0 -0.866,0.16 -1.097,0.464 -0.244,0.306 -0.33,0.684 -0.281,1.135 0.061,0.44 0.244,0.817 0.549,1.122 0.317,0.306 0.72,0.464 1.22,0.464 0.476,0 0.842,-0.158 1.086,-0.464 0.244,-0.305 0.342,-0.682 0.28,-1.122 -0.048,-0.451 -0.231,-0.829 -0.561,-1.135 m -33.66,15.921 c -0.793,-0.28 -1.72,-0.427 -2.782,-0.427 -1.537,0 -2.586,0.269 -3.16,0.806 -0.573,0.525 -0.951,1.366 -1.135,2.501 l -0.902,4.318 h -10.455 c -0.501,-1.28 -0.977,-2.537 -1.428,-3.781 -0.439,-1.245 -0.83,-2.355 -1.159,-3.306 -0.475,-0.147 -0.964,-0.269 -1.476,-0.378 -0.512,-0.111 -1.11,-0.16 -1.83,-0.16 -1.562,0 -2.72,0.282 -3.464,0.831 -0.757,0.548 -1.086,1.341 -1.001,2.366 0.048,0.501 0.159,0.976 0.341,1.44 0.183,0.463 0.391,1 0.623,1.598 0.329,0.964 0.793,2.147 1.378,3.575 0.585,1.415 1.233,2.952 1.928,4.611 0.695,1.647 1.415,3.343 2.171,5.087 0.757,1.745 1.489,3.405 2.196,4.991 0.708,1.573 1.355,3.025 1.928,4.343 0.573,1.317 1.062,2.354 1.452,3.147 0.561,0.318 1.403,0.611 2.55,0.903 1.147,0.281 2.269,0.427 3.367,0.427 1.598,0 3.001,-0.219 4.185,-0.671 1.183,-0.439 1.915,-1.183 2.183,-2.208 0.5,-1.891 1.038,-4.075 1.611,-6.564 0.561,-2.488 1.122,-5.039 1.696,-7.673 0.573,-2.623 1.122,-5.222 1.635,-7.785 0.524,-2.549 0.988,-4.842 1.378,-6.868 -0.439,-0.464 -1.049,-0.842 -1.83,-1.123 M -133.42,7.259 c -0.11,-1.172 -0.439,-2.05 -1.013,-2.611 -0.561,-0.573 -1.305,-0.854 -2.232,-0.854 H -148.5 l -0.512,-5.978 h 12.359 c 0.182,-0.354 0.341,-0.794 0.475,-1.33 0.135,-0.537 0.159,-1.134 0.111,-1.805 -0.111,-1.184 -0.428,-2.037 -0.977,-2.587 -0.549,-0.561 -1.28,-0.829 -2.208,-0.829 h -10.333 l -0.586,-6.661 h 14.128 c 0.183,-0.355 0.329,-0.818 0.463,-1.392 0.122,-0.561 0.159,-1.195 0.098,-1.866 -0.098,-1.171 -0.427,-2.026 -0.989,-2.55 -0.573,-0.537 -1.293,-0.806 -2.183,-0.806 h -15.824 c -1.354,0 -2.391,0.404 -3.123,1.197 -0.732,0.804 -1.037,1.878 -0.915,3.232 l 2.062,23.559 c 0.109,1.342 0.61,2.428 1.476,3.221 0.867,0.805 1.976,1.207 3.331,1.207 h 17.641 c 0.183,-0.365 0.342,-0.805 0.476,-1.342 0.122,-0.536 0.159,-1.134 0.11,-1.805 m -26.719,-0.11 c -0.097,-1.171 -0.451,-2.049 -1.024,-2.611 -0.586,-0.573 -1.342,-0.854 -2.27,-0.854 h -6.502 l -2.233,-25.535 c -0.402,-0.109 -0.952,-0.207 -1.671,-0.293 -0.72,-0.085 -1.476,-0.133 -2.257,-0.133 -1.672,0 -2.819,0.28 -3.441,0.853 -0.622,0.573 -0.878,1.599 -0.744,3.087 l 1.927,22.021 h -8.369 c -0.183,0.354 -0.341,0.817 -0.487,1.391 -0.147,0.561 -0.196,1.183 -0.135,1.867 0.11,1.195 0.451,2.086 1.037,2.635 0.574,0.549 1.33,0.829 2.257,0.829 h 23.29 c 0.22,-0.365 0.391,-0.829 0.513,-1.39 0.134,-0.574 0.171,-1.196 0.109,-1.867 M -189.821,0 c -0.171,-2.062 -0.879,-3.904 -2.111,-5.539 -1.22,-1.635 -2.806,-2.928 -4.734,-3.892 1.293,-1.916 2.526,-3.721 3.709,-5.405 1.184,-1.695 2.05,-3.05 2.599,-4.087 -0.415,-1.135 -1.086,-1.988 -2.001,-2.574 -0.927,-0.598 -1.903,-0.891 -2.94,-0.891 -1.342,0 -2.355,0.293 -3.013,0.891 -0.66,0.586 -1.257,1.391 -1.806,2.416 l -4.429,7.942 h -3.672 l -0.94,-10.712 c -0.402,-0.109 -0.964,-0.207 -1.683,-0.293 -0.72,-0.085 -1.464,-0.133 -2.245,-0.133 -1.671,0 -2.806,0.28 -3.416,0.853 -0.61,0.573 -0.854,1.599 -0.72,3.087 l 2.269,25.864 c 0.061,0.708 0.293,1.257 0.696,1.647 0.415,0.39 0.976,0.696 1.708,0.903 1.171,0.427 2.574,0.732 4.184,0.903 1.611,0.183 3.294,0.268 5.039,0.268 4.831,0 8.369,-1 10.602,-3.013 2.245,-2.001 3.208,-4.746 2.904,-8.235 m -30.989,-5.697 c -0.244,-2.77 -0.866,-5.222 -1.891,-7.358 -1.025,-2.134 -2.342,-3.916 -3.965,-5.355 -1.61,-1.44 -3.465,-2.538 -5.563,-3.282 -2.086,-0.745 -4.319,-1.122 -6.71,-1.122 -2.379,0 -4.551,0.377 -6.503,1.122 -1.964,0.744 -3.623,1.842 -4.965,3.282 -1.354,1.439 -2.355,3.221 -3.002,5.355 -0.646,2.136 -0.854,4.588 -0.61,7.358 0.245,2.768 0.891,5.209 1.928,7.332 1.037,2.11 2.367,3.891 3.977,5.331 1.623,1.44 3.465,2.525 5.539,3.27 2.074,0.744 4.283,1.122 6.625,1.122 2.354,0 4.502,-0.378 6.466,-1.122 1.952,-0.745 3.624,-1.83 4.99,-3.27 1.366,-1.44 2.379,-3.221 3.05,-5.331 0.671,-2.123 0.878,-4.564 0.634,-7.332 M 3.002,-9.395 c 1.964,2.612 3.099,5.576 3.379,8.846 0.61,6.942 -2.391,11.212 -5.014,13.566 -3.441,3.075 -8.443,4.636 -14.885,4.636 -1.952,0 -3.879,-0.097 -5.734,-0.305 -2.061,-0.219 -3.843,-0.61 -5.44,-1.171 -1.697,-0.525 -3.076,-1.318 -4.185,-2.379 -0.086,-0.085 -0.159,-0.171 -0.232,-0.256 l -0.098,-0.098 c -0.756,-0.817 -2.013,-0.915 -2.892,-0.232 -1.61,1.282 -3.391,2.294 -5.295,3.014 -2.683,1.024 -5.624,1.537 -8.734,1.537 -3.075,0 -6.027,-0.5 -8.797,-1.5 -2.83,-1.013 -5.404,-2.538 -7.625,-4.514 -0.122,-0.11 -0.231,-0.22 -0.342,-0.33 l -0.304,-0.305 c -0.403,-0.403 -1.013,-0.635 -1.513,-0.598 -0.573,0 -1.11,0.244 -1.501,0.647 -0.109,0.109 -0.207,0.232 -0.317,0.341 -0.074,0.086 -0.159,0.184 -0.244,0.257 -2.184,2.086 -4.88,3.635 -8.003,4.599 -2.782,0.867 -5.893,1.293 -9.26,1.293 -1.526,0 -3.185,-0.073 -5.051,-0.232 -2.086,-0.182 -4.124,-0.573 -6.052,-1.171 l -0.158,-0.048 c -1.635,-0.55 -3.014,-1.367 -4.111,-2.416 -0.256,-0.244 -0.5,-0.525 -0.793,-0.89 -0.403,-0.513 -1.026,-0.818 -1.672,-0.818 h -0.012 c -0.659,0 -1.281,0.317 -1.683,0.841 -1.135,1.465 -2.685,2.611 -4.515,3.295 -1.902,0.707 -4.063,1.073 -6.429,1.073 -1.623,0 -3.269,-0.207 -4.904,-0.622 -1.77,-0.439 -3.1,-0.927 -4.197,-1.561 -0.598,-0.342 -1.16,-0.806 -1.66,-1.391 -0.439,-0.513 -1.073,-0.794 -1.756,-0.744 -0.671,0.048 -1.282,0.402 -1.648,0.963 -1.195,1.794 -3.183,2.88 -5.331,2.88 h -17.641 c -1.538,0 -3.014,-0.281 -4.38,-0.83 -0.585,-0.232 -1.233,-0.195 -1.782,0.085 -0.926,0.488 -1.952,0.745 -2.952,0.745 h -23.29 c -1.989,0 -3.782,-0.525 -5.356,-1.55 -0.646,-0.427 -1.476,-0.476 -2.159,-0.11 -3.136,1.66 -7.101,2.501 -11.761,2.501 -1.964,0 -3.892,-0.097 -5.746,-0.305 -2.05,-0.219 -3.831,-0.61 -5.442,-1.171 -1.683,-0.525 -3.074,-1.33 -4.184,-2.391 -0.073,-0.073 -0.147,-0.146 -0.22,-0.232 l -0.109,-0.122 c -0.757,-0.805 -2.014,-0.903 -2.88,-0.22 -1.622,1.282 -3.404,2.294 -5.307,3.014 -2.684,1.024 -5.612,1.537 -8.735,1.537 -3.074,0 -6.027,-0.5 -8.797,-1.5 -0.793,-0.293 -1.573,-0.623 -2.33,-0.976 0.44,-1.721 -0.036,-3.502 -1.647,-5.124 -0.829,-0.83 -2.513,-1.477 -3.513,-0.854 -0.33,0.207 -0.952,0.597 -1.818,1.073 -1.44,-1.598 -2.672,-3.44 -3.685,-5.502 -1.403,-2.88 -2.281,-6.222 -2.611,-9.919 -0.268,-3.074 -0.121,-5.904 0.44,-8.442 1.659,-2.441 2.916,-5.112 3.684,-7.906 0,-0.012 0.013,-0.037 0.013,-0.049 v -0.012 c 0.268,-0.366 0.561,-0.72 0.866,-1.049 0.085,-0.11 0.17,-0.208 0.268,-0.306 2.013,-2.146 4.49,-3.781 7.345,-4.867 2.684,-1.025 5.648,-1.55 8.796,-1.55 3.111,0 6.088,0.513 8.857,1.501 1.952,0.683 3.819,1.659 5.551,2.867 0.915,0.647 2.172,0.463 2.88,-0.403 0.292,-0.353 0.548,-0.634 0.768,-0.853 1.867,-1.733 4.404,-2.575 7.796,-2.575 1.049,0 2.074,0.061 3.038,0.183 1,0.122 1.818,0.269 2.513,0.452 0.964,0.256 1.854,0.732 2.599,1.378 0.78,0.684 1.927,0.72 2.745,0.073 1.256,-1 3.464,-2.196 6.893,-2.196 2.232,0 4.441,0.659 6.368,1.879 0.561,0.354 1.11,0.793 1.635,1.281 0.854,0.806 2.196,0.769 3.001,-0.085 0.159,-0.159 0.305,-0.317 0.452,-0.452 1.866,-1.684 4.392,-2.513 7.747,-2.513 1.049,0 2.074,0.061 3.037,0.183 1.025,0.122 1.818,0.269 2.514,0.452 1.744,0.451 3.221,1.647 4.063,3.281 0.329,0.66 0.975,1.086 1.708,1.16 0.732,0.06 1.439,-0.256 1.89,-0.842 0.171,-0.232 0.354,-0.464 0.55,-0.671 1.939,-2.123 4.721,-3.294 7.856,-3.294 h 15.824 c 1.244,0 2.452,0.22 3.575,0.658 0.524,0.208 1.109,0.195 1.635,-0.036 1.573,-0.695 3.403,-1.05 5.465,-1.05 1.159,0 2.208,0.098 3.111,0.293 0.695,0.147 1.379,0.318 2.038,0.513 1.635,0.488 3.025,1.635 3.818,3.147 0.354,0.66 1.025,1.099 1.782,1.135 0.768,0.049 1.463,-0.317 1.878,-0.939 0.403,-0.598 0.867,-1.147 1.403,-1.635 1.794,-1.672 4.319,-2.514 7.515,-2.514 1.793,0 3.453,0.269 4.942,0.806 0.487,0.171 0.975,0.39 1.537,0.683 0.56,0.292 1.232,0.317 1.817,0.074 l 0.159,-0.074 c 0.085,-0.037 0.183,-0.073 0.281,-0.11 0.975,-0.378 2.05,-0.683 3.209,-0.915 0.987,-0.195 1.964,-0.342 2.903,-0.451 0.94,-0.098 1.866,-0.183 2.77,-0.22 0.878,-0.036 1.659,-0.06 2.341,-0.06 2.514,0 4.966,0.28 7.272,0.817 0.903,0.207 1.818,-0.184 2.306,-0.964 0.476,-0.781 0.415,-1.781 -0.183,-2.489 -1.024,-1.233 -1.648,-2.672 -1.842,-4.27 -0.257,-2.135 0.317,-4.221 1.598,-5.881 1.452,-1.841 3.684,-2.903 6.136,-2.903 0.269,0 1.147,0.073 3.319,0.671 0.268,0.073 0.732,0.195 1.33,0.012 1.379,-0.463 2.794,-0.696 4.282,-0.696 1.122,0 2.111,0.111 3.014,0.331 0.573,0.133 1.097,0.316 1.671,0.548 0.512,0.196 1.086,0.196 1.598,-0.012 0.049,-0.012 0.171,-0.074 0.22,-0.098 2.55,-0.976 5.904,-1.037 8.747,-0.036 l 0.318,0.134 c 0.512,0.195 1.085,0.183 1.597,-0.036 1.574,-0.671 3.502,-0.831 5.246,-0.5 0.526,0.097 1.001,0.218 1.428,0.365 0.207,0.073 0.402,0.159 0.598,0.244 0.573,0.257 1.232,0.257 1.794,-0.012 1.659,-0.768 3.587,-0.988 5.624,-0.55 0.341,0.074 0.695,0.062 1.037,-0.036 1.695,-0.488 3.367,-0.415 4.965,0.147 0.403,0.134 0.841,0.158 1.245,0.049 0.244,-0.062 0.475,-0.122 0.719,-0.171 0.452,-0.098 0.903,-0.159 1.404,-0.22 0.389,-0.036 0.78,-0.073 1.207,-0.085 0.342,-0.013 0.671,-0.024 0.964,-0.024 1.672,0 3.269,0.244 4.757,0.744 0.477,0.158 0.989,0.146 1.453,-0.037 0.988,-0.378 2.012,-0.561 3.16,-0.561 0.536,0 1.049,0.024 1.549,0.085 0.39,0.049 0.744,0.109 1.074,0.183 0.342,0.073 0.695,0.073 1.024,-0.024 2.062,-0.561 4.6,-0.268 6.601,0.976 1.464,0.902 2.586,2.245 3.245,3.88 0.549,1.341 0.622,2.842 0.207,4.22 -0.122,0.452 -0.109,0.928 0.049,1.355 0.281,0.744 0.476,1.525 0.561,2.306 0.256,1.988 -0.073,3.928 -0.915,5.624 -0.353,0.695 -0.293,1.525 0.158,2.171 0.586,0.842 1.062,1.757 1.417,2.721 0.633,1.708 0.5,3.623 -0.367,5.234 -0.561,1.049 -1.33,2.293 -2.342,3.782 -0.525,0.757 -0.489,1.769 0.073,2.501 z" /></g><g
        transform="translate(331.9971,28.3267)"
        id="g28"><path
             id="path30"
             style="fill-opacity:1;fill-rule:nonzero;stroke:none"
             d="m 0,0 c -0.073,-0.513 -0.293,-0.902 -0.671,-1.159 -0.391,-0.244 -0.866,-0.378 -1.427,-0.378 h -1.098 l 0.366,2.965 c 0.158,0.024 0.317,0.049 0.476,0.06 0.146,0.025 0.317,0.025 0.512,0.025 C -0.5,1.513 0.122,1.013 0,0" /></g><g
        transform="translate(320.2002,28.7905)"
        id="g32"><path
             id="path34"
             style="fill-opacity:1;fill-rule:nonzero;stroke:none"
             d="m 0,0 c -0.049,-0.415 -0.22,-0.732 -0.501,-0.939 -0.28,-0.207 -0.658,-0.318 -1.109,-0.318 h -1.648 l 0.293,2.343 c 0.158,0.024 0.354,0.049 0.61,0.06 0.244,0.025 0.476,0.038 0.708,0.038 0.597,0 1.037,-0.111 1.305,-0.318 C -0.062,0.659 0.049,0.378 0,0" /></g><g
        transform="translate(319.9678,24.3247)"
        id="g36"><path
             id="path38"
             style="fill-opacity:1;fill-rule:nonzero;stroke:none"
             d="m 0,0 c -0.049,-0.463 -0.269,-0.817 -0.646,-1.024 -0.378,-0.22 -0.854,-0.33 -1.416,-0.33 -0.268,0 -0.537,0.012 -0.805,0.037 -0.28,0.024 -0.512,0.061 -0.696,0.097 l 0.306,2.477 h 1.806 C -0.378,1.257 0.11,0.842 0,0" /></g><g
        transform="translate(288.2969,26.4605)"
        id="g40"><path
             id="path42"
             style="fill-opacity:1;fill-rule:nonzero;stroke:none"
             d="m 0,0 c -0.146,-1.135 -0.488,-2.001 -1.037,-2.563 -0.549,-0.573 -1.221,-0.853 -2.038,-0.853 -0.805,0 -1.415,0.28 -1.818,0.853 -0.415,0.562 -0.537,1.428 -0.402,2.563 0.134,1.122 0.487,1.977 1.037,2.55 0.549,0.56 1.22,0.853 2.025,0.853 0.805,0 1.416,-0.293 1.83,-0.853 C 0,1.977 0.134,1.122 0,0" /></g><g
        transform="translate(327.8496,59.1568)"
        id="g44"><path
             id="path46"
             style="fill-opacity:1;fill-rule:nonzero;stroke:none"
             d="m 0,0 c -0.135,-1.562 -0.769,-2.733 -1.903,-3.489 -1.135,-0.769 -2.55,-1.148 -4.258,-1.148 h -3.307 l 0.781,8.956 c 0.476,0.073 0.94,0.134 1.403,0.182 0.464,0.061 0.988,0.086 1.562,0.086 C -1.647,4.587 0.269,3.062 0,0" /></g><g
        transform="translate(296.7022,53.5083)"
        id="g48"><path
             id="path50"
             style="fill-opacity:1;fill-rule:nonzero;stroke:none"
             d="m 0,0 c -0.293,-3.453 -1.244,-6.039 -2.83,-7.76 -1.599,-1.719 -3.611,-2.586 -6.064,-2.586 -2.452,0 -4.331,0.867 -5.612,2.586 -1.293,1.721 -1.781,4.307 -1.488,7.76 0.305,3.416 1.257,5.978 2.867,7.698 1.61,1.72 3.611,2.586 6.039,2.586 2.452,0 4.318,-0.866 5.612,-2.586 C -0.195,5.978 0.306,3.416 0,0" /></g><g
        transform="translate(106.8872,53.5083)"
        id="g52"><path
             id="path54"
             style="fill-opacity:1;fill-rule:nonzero;stroke:none"
             d="m 0,0 c -0.293,-3.453 -1.244,-6.039 -2.831,-7.76 -1.598,-1.719 -3.61,-2.586 -6.063,-2.586 -2.452,0 -4.331,0.867 -5.612,2.586 -1.293,1.721 -1.781,4.307 -1.488,7.76 0.305,3.416 1.256,5.978 2.867,7.698 1.61,1.72 3.611,2.586 6.039,2.586 2.452,0 4.318,-0.866 5.612,-2.586 C -0.195,5.978 0.305,3.416 0,0" /></g><g
        transform="translate(260.4561,53.4595)"
        id="g56"><path
             id="path58"
             style="fill-opacity:1;fill-rule:nonzero;stroke:none"
             d="m 0,0 c -0.306,-3.416 -1.342,-5.966 -3.123,-7.65 -1.781,-1.696 -4.064,-2.538 -6.832,-2.538 -0.599,0 -1.233,0.025 -1.892,0.085 -0.646,0.049 -1.195,0.123 -1.646,0.233 l 1.732,19.837 c 0.573,0.097 1.147,0.171 1.72,0.207 0.573,0.037 1.184,0.049 1.818,0.049 2.696,0 4.819,-0.842 6.369,-2.525 C -0.317,6.014 0.293,3.44 0,0" /></g><g
        transform="translate(223.8184,50.897)"
        id="g60"><path
             id="path62"
             style="fill-opacity:1;fill-rule:nonzero;stroke:none"
             d="m 0,0 h -7.625 c 0.83,2.135 1.696,4.222 2.611,6.259 0.903,2.05 1.671,3.867 2.319,5.466 h 0.316 C -2.086,10.236 -1.72,8.467 -1.269,6.417 -0.829,4.38 -0.402,2.232 0,0" /></g><g
        transform="translate(138.0274,59.1568)"
        id="g64"><path
             id="path66"
             style="fill-opacity:1;fill-rule:nonzero;stroke:none"
             d="m 0,0 c -0.134,-1.562 -0.769,-2.733 -1.903,-3.489 -1.135,-0.769 -2.55,-1.148 -4.258,-1.148 h -3.306 l 0.793,8.956 c 0.464,0.073 0.927,0.134 1.391,0.182 0.475,0.061 0.988,0.086 1.561,0.086 C -1.635,4.587 0.269,3.062 0,0" /></g><g
        transform="translate(5.5562,54.4898)"
        id="g68"><path
             id="path70"
             style="fill-opacity:1;fill-rule:nonzero;stroke:none"
             d="m 0,0 24.846,-7.206 0.793,2.735 c 0.332,1.144 -0.327,2.341 -1.471,2.672 L 3.466,4.206 C 2.322,4.538 1.125,3.879 0.793,2.735 Z" /></g><g
        transform="translate(45.1997,101.6802)"
        id="g72"><path
             id="path74"
             style="fill-opacity:1;fill-rule:nonzero;stroke:none"
             d="m 0,0 -7.037,-15.524 c -0.786,-1.737 -2.841,-2.509 -4.576,-1.723 -1.737,0.787 -2.509,2.84 -1.722,4.576 l 7.037,15.525 c 0.786,1.736 2.84,2.507 4.575,1.722 C 0.014,3.789 0.787,1.736 0,0" /></g><g
        transform="translate(29.1563,84.6973)"
        id="g76"><path
             id="path78"
             style="fill-opacity:1;fill-rule:nonzero;stroke:none"
             d="m 0,0 8.637,-6.712 c 1.505,-1.171 1.776,-3.35 0.605,-4.853 -1.171,-1.504 -3.348,-1.775 -4.852,-0.604 l -8.638,6.712 c -1.504,1.171 -1.773,3.348 -0.604,4.853 C -3.681,0.9 -1.504,1.171 0,0" /></g><g
        transform="translate(16.9248,90.3447)"
        id="g80"><path
             id="path82"
             style="fill-opacity:1;fill-rule:nonzero;stroke:none"
             d="m 0,0 3.14,-11.072 c 0.401,-1.41 -0.421,-2.884 -1.83,-3.284 -1.41,-0.401 -2.883,0.42 -3.284,1.83 l -3.14,11.072 c -0.401,1.41 0.422,2.883 1.83,3.284 C -1.874,2.23 -0.401,1.41 0,0" /></g><g
        transform="translate(25.4141,94.2583)"
        id="g84"><path
             id="path86"
             style="fill-opacity:1;fill-rule:nonzero;stroke:none"
             d="m 0,0 c 0.155,-0.292 0.288,-0.598 0.381,-0.924 l 2.011,-7.052 c 0.202,-0.049 0.41,-0.087 0.626,-0.099 1.902,-0.106 3.539,1.357 3.644,3.261 L 7.657,13.612 C 7.763,15.515 6.3,17.15 4.396,17.256 2.494,17.361 0.858,15.899 0.752,13.996 Z" /></g><g
        transform="translate(24.3116,78.4732)"
        id="g88"><path
             id="path90"
             style="fill-opacity:1;fill-rule:nonzero;stroke:none"
             d="m 0,0 c -1.927,1.5 -2.274,4.288 -0.775,6.216 0.749,0.962 1.827,1.539 2.983,1.672 l -1.894,6.641 c -0.521,1.833 -2.437,2.901 -4.271,2.38 -1.833,-0.522 -2.901,-2.437 -2.38,-4.271 l 3,-10.52 c 0.475,-1.672 2.11,-2.692 3.785,-2.467 z" /></g><g
        transform="translate(38.4566,78.69)"
        id="g92"><path
             id="path94"
             style="fill-opacity:1;fill-rule:nonzero;stroke:none"
             d="M 0,0 C -0.269,1.558 -0.528,3.688 -0.417,5.675 -1.531,4.635 -3.144,4.193 -4.675,4.637 -4.876,4.696 -5.076,4.769 -5.272,4.858 -6.329,5.337 -7.095,6.187 -7.513,7.182 -7.856,6.969 -8.226,6.814 -8.611,6.704 L -0.066,0.062 C -0.042,0.044 -0.024,0.02 0,0" /></g><g
        transform="translate(39.3755,72.8677)"
        id="g96"><path
             id="path98"
             style="fill-opacity:1;fill-rule:nonzero;stroke:none"
             d="m 0,0 c -0.071,-0.11 -0.128,-0.228 -0.21,-0.333 -1.121,-1.439 -2.979,-2.041 -4.733,-1.532 -0.539,0.157 -1.038,0.412 -1.483,0.759 l -6.844,5.317 c -3.317,-2.518 -4.082,-6.454 -4.24,-8.582 l -0.97,0.073 c 0.157,2.106 0.876,5.859 3.802,8.585 -0.552,-0.05 -1.103,-0.013 -1.638,0.142 v 0 c -0.753,0.218 -1.414,0.623 -1.938,1.16 -0.015,-0.581 -0.152,-1.155 -0.444,-1.678 -0.472,-0.848 -1.246,-1.461 -2.177,-1.726 -0.655,-0.186 -1.347,-0.185 -2,0.005 -1.212,0.352 -2.141,1.285 -2.485,2.496 l -2.914,10.246 c -2.651,-7.221 -1.522,-12.245 -0.063,-15.213 1.506,-3.066 4.109,-5.39 6.963,-6.218 l -0.271,-0.934 c -2.727,0.791 -5.234,2.818 -6.907,5.532 0.247,-0.804 0.528,-1.627 0.854,-2.474 1.445,-3.753 -0.181,-8.043 -0.181,-8.043 l 15.533,-4.506 c 0.935,3.225 4.24,4.897 6.835,6.915 C 0.943,-4.989 0.089,-1.292 0,0" /></g></g></g></g></svg>